# xmcd
# 
# Track frame offsets:
#     150
#     18964
#     28844
#     45863
#     63105
#     82651
#     102562
#     115477
#     133472
#     151972
# 
# Disc length: 2279
# 
# Revision: 1
# Processed by: cddbd v1.5.2PL0 Copyright (c) Steve Scherf et al.
# Submitted via: fre:ac v1.0.27
# 
DISCID=7808e50a
DTITLE=Jethro Tull - Stand Up (MFSL UDCD 524)
DYEAR=1969
DGENRE=Progressive Rock
TTITLE0=A New Day Yesterday
TTITLE1=Jeffrey Goes to Leicester Square
TTITLE2=Bourée
TTITLE3=Back to the Family
TTITLE4=Look Into the Sun
TTITLE5=Nothing is Easy
TTITLE6=Fat Man
TTITLE7=We Used Tto Know
TTITLE8=Reasons for Waiting
TTITLE9=For a Thousand Mothers
EXTD=Mobile Fidelity Sound Labs (MFSL)
EXTT0=
EXTT1=
EXTT2=
EXTT3=
EXTT4=
EXTT5=
EXTT6=
EXTT7=
EXTT8=
EXTT9=
PLAYORDER=
